# xmcd CD database file generated by Grip 3.0.7
# 
# Track frame offsets:
#       150
#       12263
#       25688
#       37388
#       50663
#       64988
#       78638
#       90563
#       104213
#       115388
#       128138
#       141975
#       154538
#       167513
#       181838
#       196088
# 
# Disc length: 2749 seconds
# 
# Revision: 5
# Processed by: cddbd v1.5.1PL0 Copyright (c) Steve Scherf et al.
# Submitted via: Grip 3.0.7
# 
DISCID=dd0abb10
DTITLE=Various Artist - Blues Boogie and Bop: The Best of the 1940s Mercury Session
DYEAR=1995
DGENRE=Blues
TTITLE0=Albert Ammons and His Rhythm Kings - Margie
TTITLE1=Albert Ammons and His Rhythm Kings - Mr. Bell Boogie
TTITLE2=Albert Ammons and His Rhythm Kings - Oh, Lady, Be Good!
TTITLE3=Helen Humes with Buck Clapton's Orchestra - Today I Sing The Blues
TTITLE4=Helen Humes with Buck Clapton's Orchestra - Jet Propelled Papa
TTITLE5=Fay McShaw and His Sextet - Bucktown Boogie
TTITLE6=Fay McShaw and His Sextet - Voodoo Woman Blues
TTITLE7=Eddie Vinson and His Orchestra - Kidney Stew Blues
TTITLE8=Eddie Vinson and His Orchestra - Wandering Mind Blues
TTITLE9=Eddie Vinson and His Orchestra - Lazy Gal
TTITLE10=Roy Byrd and His Orchestra - Hadacol Bounce
TTITLE11=Roy Byrd and His Orchestra - Longhair Stomp
TTITLE12=Buddy Rich and His Orchestra - Quiet Riot
TTITLE13=Buddy Rich and His Orchestra - Rich-ual Dance
TTITLE14=Cootie Williams and His Orchestra - 'Gator Tail, Part 1
TTITLE15=Cootie Williams and His Orchestra - Mercenary Papa
EXTD=
EXTT0=
EXTT1=Albert Ammons and His Rhythm Kings
EXTT2=Albert Ammons and His Rhythm Kings
EXTT3=Helen Humes with Buck Clayton's Orchestra
EXTT4=Helen Humes with Buck Clayton's Orchestra
EXTT5=Jay McShann and His Sectet
EXTT6=Jay McShann and His Sectet
EXTT7=Eddie "Cleanhead" Vinson and His Orchestra
EXTT8=Eddie "Cleanhead" Vinson and His Orchestra
EXTT9=Eddie "Cleanhead" Vinson and His Orchestra
EXTT10=Roy Byrd and His Blues Jumpers
EXTT11=Roy Byrd and His Blues Jumpers
EXTT12=Buddy Rich and His Orchestra
EXTT13=Buddy Rich and His Orchestra
EXTT14=Cootie Williams and His Orchestra
EXTT15=Cootie Williams and His Orchestra
PLAYORDER=
